<?xml version="1.0" encoding="UTF-8" standalone="no"?>
<!DOCTYPE svg PUBLIC "-//W3C//DTD SVG 1.1//EN"
 "http://www.w3.org/Graphics/SVG/1.1/DTD/svg11.dtd">
<!-- Generated by graphviz version 2.38.0 (20140413.2041)
 -->
<!-- Title: G Pages: 1 -->
<svg width="410pt" height="915pt"
 viewBox="0.00 0.00 410.00 915.00" xmlns="http://www.w3.org/2000/svg" xmlns:xlink="http://www.w3.org/1999/xlink">
<g id="graph0" class="graph" transform="scale(1 1) rotate(0) translate(4 911)">
<title>G</title>
<polygon fill="white" stroke="none" points="-4,4 -4,-911 406,-911 406,4 -4,4"/>
<!-- foothills_1 -->
<g id="node1" class="node"><title>foothills_1</title>
<polygon fill="none" stroke="black" stroke-width="2" points="128,-23 54,-23 54,-0 128,-0 128,-23"/>
<text text-anchor="middle" x="91" y="-7.8" font-family="arial" font-size="14.00">foothills_1</text>
</g>
<!-- foothills_2 -->
<g id="node3" class="node"><title>foothills_2</title>
<polygon fill="none" stroke="black" points="74,-91 0,-91 0,-68 74,-68 74,-91"/>
<text text-anchor="middle" x="37" y="-75.8" font-family="arial" font-size="14.00">foothills_2</text>
</g>
<!-- foothills_1&#45;&gt;foothills_2 -->
<g id="edge1" class="edge"><title>foothills_1&#45;&gt;foothills_2</title>
<path fill="none" stroke="black" d="M53.6946,-20.9108C43.2912,-25.1578 33.1604,-31.5131 27,-41 23.6149,-46.2131 23.9679,-52.5386 25.8046,-58.4978"/>
<polygon fill="black" stroke="black" points="22.7033,-60.143 29.8984,-67.92 29.1235,-57.3535 22.7033,-60.143"/>
<text text-anchor="middle" x="37.5" y="-43.6" font-family="arial" font-size="8.00">south</text>
</g>
<!-- dark_cave_1 -->
<g id="node4" class="node"><title>dark_cave_1</title>
<polygon fill="none" stroke="black" points="203,-91 113,-91 113,-68 203,-68 203,-91"/>
<text text-anchor="middle" x="158" y="-75.8" font-family="arial" font-size="14.00">dark_cave_1</text>
</g>
<!-- foothills_1&#45;&gt;dark_cave_1 -->
<g id="edge2" class="edge"><title>foothills_1&#45;&gt;dark_cave_1</title>
<path fill="none" stroke="black" d="M95.6106,-23.265C99.4294,-31.2964 105.446,-42.1847 113,-50 117.471,-54.6254 122.834,-58.8414 128.276,-62.529"/>
<polygon fill="black" stroke="black" points="126.444,-65.5119 136.773,-67.8718 130.17,-59.5859 126.444,-65.5119"/>
<text text-anchor="middle" x="130" y="-43.6" font-family="arial" font-size="8.00">doorway</text>
</g>
<!-- eaten_by_grue -->
<g id="node2" class="node"><title>eaten_by_grue</title>
<polygon fill="none" stroke="black" stroke-width="2" points="250,-907 146,-907 146,-884 250,-884 250,-907"/>
<text text-anchor="middle" x="198" y="-891.8" font-family="arial" font-size="14.00">eaten_by_grue</text>
</g>
<!-- foothills_2&#45;&gt;foothills_1 -->
<g id="edge3" class="edge"><title>foothills_2&#45;&gt;foothills_1</title>
<path fill="none" stroke="black" d="M45.8339,-67.703C53.9481,-57.7856 66.1452,-42.8781 75.8197,-31.0537"/>
<polygon fill="black" stroke="black" points="78.7004,-33.06 82.324,-23.104 73.2827,-28.6273 78.7004,-33.06"/>
<text text-anchor="middle" x="77.5" y="-43.6" font-family="arial" font-size="8.00">north</text>
</g>
<!-- dark_cave_1&#45;&gt;foothills_1 -->
<g id="edge4" class="edge"><title>dark_cave_1&#45;&gt;foothills_1</title>
<path fill="none" stroke="black" d="M157.156,-67.9012C156.014,-59.748 153.326,-48.6228 147,-41 142.794,-35.9317 137.457,-31.6688 131.757,-28.1133"/>
<polygon fill="black" stroke="black" points="133.061,-24.8366 122.61,-23.0944 129.693,-30.9734 133.061,-24.8366"/>
<text text-anchor="middle" x="162.5" y="-43.6" font-family="arial" font-size="8.00">south</text>
</g>
<!-- dark_cave_2 -->
<g id="node5" class="node"><title>dark_cave_2</title>
<polygon fill="none" stroke="black" points="203,-159 113,-159 113,-136 203,-136 203,-159"/>
<text text-anchor="middle" x="158" y="-143.8" font-family="arial" font-size="14.00">dark_cave_2</text>
</g>
<!-- dark_cave_1&#45;&gt;dark_cave_2 -->
<g id="edge5" class="edge"><title>dark_cave_1&#45;&gt;dark_cave_2</title>
<path fill="none" stroke="black" d="M146.944,-91.187C140.811,-98.4458 134.978,-108.431 138,-118 139.038,-121.285 140.605,-124.521 142.414,-127.565"/>
<polygon fill="black" stroke="black" points="139.693,-129.783 148.282,-135.987 145.437,-125.781 139.693,-129.783"/>
<text text-anchor="middle" x="147.5" y="-111.6" font-family="arial" font-size="8.00">north</text>
</g>
<!-- dark_cave_2&#45;&gt;dark_cave_1 -->
<g id="edge6" class="edge"><title>dark_cave_2&#45;&gt;dark_cave_1</title>
<path fill="none" stroke="black" d="M158,-135.703C158,-126.363 158,-112.598 158,-101.15"/>
<polygon fill="black" stroke="black" points="161.5,-101.104 158,-91.104 154.5,-101.104 161.5,-101.104"/>
<text text-anchor="middle" x="168.5" y="-111.6" font-family="arial" font-size="8.00">south</text>
</g>
<!-- dark_cave_3 -->
<g id="node6" class="node"><title>dark_cave_3</title>
<polygon fill="none" stroke="black" points="203,-227 113,-227 113,-204 203,-204 203,-227"/>
<text text-anchor="middle" x="158" y="-211.8" font-family="arial" font-size="14.00">dark_cave_3</text>
</g>
<!-- dark_cave_2&#45;&gt;dark_cave_3 -->
<g id="edge7" class="edge"><title>dark_cave_2&#45;&gt;dark_cave_3</title>
<path fill="none" stroke="black" d="M148.282,-159.013C144.269,-164.059 140.076,-170.429 138,-177 136.017,-183.279 137.847,-189.738 141.073,-195.488"/>
<polygon fill="black" stroke="black" points="138.32,-197.658 146.944,-203.813 144.041,-193.624 138.32,-197.658"/>
<text text-anchor="middle" x="147.5" y="-179.6" font-family="arial" font-size="8.00">north</text>
</g>
<!-- dark_cave_3&#45;&gt;dark_cave_2 -->
<g id="edge9" class="edge"><title>dark_cave_3&#45;&gt;dark_cave_2</title>
<path fill="none" stroke="black" d="M158,-203.703C158,-194.363 158,-180.598 158,-169.15"/>
<polygon fill="black" stroke="black" points="161.5,-169.104 158,-159.104 154.5,-169.104 161.5,-169.104"/>
<text text-anchor="middle" x="168.5" y="-179.6" font-family="arial" font-size="8.00">south</text>
</g>
<!-- rope_bridge_1 -->
<g id="node7" class="node"><title>rope_bridge_1</title>
<polygon fill="none" stroke="black" points="209.5,-295 106.5,-295 106.5,-272 209.5,-272 209.5,-295"/>
<text text-anchor="middle" x="158" y="-279.8" font-family="arial" font-size="14.00">rope_bridge_1</text>
</g>
<!-- dark_cave_3&#45;&gt;rope_bridge_1 -->
<g id="edge8" class="edge"><title>dark_cave_3&#45;&gt;rope_bridge_1</title>
<path fill="none" stroke="black" d="M147.093,-227.119C142.753,-232.091 138.26,-238.374 136,-245 133.774,-251.528 135.939,-258.173 139.646,-264.021"/>
<polygon fill="black" stroke="black" points="136.915,-266.21 145.846,-271.91 142.418,-261.885 136.915,-266.21"/>
<text text-anchor="middle" x="147.5" y="-247.6" font-family="arial" font-size="8.00">bridge</text>
</g>
<!-- rope_bridge_1&#45;&gt;dark_cave_3 -->
<g id="edge10" class="edge"><title>rope_bridge_1&#45;&gt;dark_cave_3</title>
<path fill="none" stroke="black" d="M158.528,-271.994C158.846,-264.477 159.16,-254.116 159,-245 158.956,-242.494 158.89,-239.865 158.813,-237.259"/>
<polygon fill="black" stroke="black" points="162.304,-236.927 158.459,-227.055 155.308,-237.17 162.304,-236.927"/>
<text text-anchor="middle" x="168" y="-247.6" font-family="arial" font-size="8.00">back</text>
</g>
<!-- falling -->
<g id="node8" class="node"><title>falling</title>
<polygon fill="none" stroke="black" points="180.5,-363 135.5,-363 135.5,-340 180.5,-340 180.5,-363"/>
<text text-anchor="middle" x="158" y="-347.8" font-family="arial" font-size="14.00">falling</text>
</g>
<!-- rope_bridge_1&#45;&gt;falling -->
<g id="edge11" class="edge"><title>rope_bridge_1&#45;&gt;falling</title>
<path fill="none" stroke="black" d="M158,-295.104C158,-304.382 158,-318.133 158,-329.612"/>
<polygon fill="black" stroke="black" points="154.5,-329.703 158,-339.703 161.5,-329.703 154.5,-329.703"/>
<text text-anchor="middle" x="173.5" y="-315.6" font-family="arial" font-size="8.00">continue</text>
</g>
<!-- moss_cavern_1 -->
<g id="node9" class="node"><title>moss_cavern_1</title>
<polygon fill="none" stroke="black" points="213.5,-431 102.5,-431 102.5,-408 213.5,-408 213.5,-431"/>
<text text-anchor="middle" x="158" y="-415.8" font-family="arial" font-size="14.00">moss_cavern_1</text>
</g>
<!-- falling&#45;&gt;moss_cavern_1 -->
<g id="edge12" class="edge"><title>falling&#45;&gt;moss_cavern_1</title>
<path fill="none" stroke="black" d="M158,-363.104C158,-372.382 158,-386.133 158,-397.612"/>
<polygon fill="black" stroke="black" points="154.5,-397.703 158,-407.703 161.5,-397.703 154.5,-397.703"/>
<text text-anchor="middle" x="169" y="-383.6" font-family="arial" font-size="8.00">down</text>
</g>
<!-- moss_cavern_2 -->
<g id="node10" class="node"><title>moss_cavern_2</title>
<polygon fill="none" stroke="black" points="150.5,-499 39.5,-499 39.5,-476 150.5,-476 150.5,-499"/>
<text text-anchor="middle" x="95" y="-483.8" font-family="arial" font-size="14.00">moss_cavern_2</text>
</g>
<!-- moss_cavern_1&#45;&gt;moss_cavern_2 -->
<g id="edge13" class="edge"><title>moss_cavern_1&#45;&gt;moss_cavern_2</title>
<path fill="none" stroke="black" d="M121.646,-431.078C112.942,-435.296 104.567,-441.094 99,-449 95.6921,-453.697 94.1819,-459.581 93.6257,-465.285"/>
<polygon fill="black" stroke="black" points="90.1217,-465.635 93.5099,-475.674 97.1213,-465.713 90.1217,-465.635"/>
<text text-anchor="middle" x="107" y="-451.6" font-family="arial" font-size="8.00">east</text>
</g>
<!-- moss_cavern_3 -->
<g id="node11" class="node"><title>moss_cavern_3</title>
<polygon fill="none" stroke="black" points="279.5,-499 168.5,-499 168.5,-476 279.5,-476 279.5,-499"/>
<text text-anchor="middle" x="224" y="-483.8" font-family="arial" font-size="14.00">moss_cavern_3</text>
</g>
<!-- moss_cavern_1&#45;&gt;moss_cavern_3 -->
<g id="edge14" class="edge"><title>moss_cavern_1&#45;&gt;moss_cavern_3</title>
<path fill="none" stroke="black" d="M163.303,-431.173C167.613,-439.156 174.236,-450.024 182,-458 186.253,-462.369 191.275,-466.458 196.339,-470.099"/>
<polygon fill="black" stroke="black" points="194.524,-473.096 204.774,-475.775 198.432,-467.288 194.524,-473.096"/>
<text text-anchor="middle" x="191.5" y="-451.6" font-family="arial" font-size="8.00">west</text>
</g>
<!-- moss_cavern_2&#45;&gt;moss_cavern_1 -->
<g id="edge15" class="edge"><title>moss_cavern_2&#45;&gt;moss_cavern_1</title>
<path fill="none" stroke="black" d="M105.306,-475.703C114.957,-465.593 129.557,-450.297 140.944,-438.368"/>
<polygon fill="black" stroke="black" points="143.505,-440.754 147.878,-431.104 138.441,-435.921 143.505,-440.754"/>
<text text-anchor="middle" x="140.5" y="-451.6" font-family="arial" font-size="8.00">west</text>
</g>
<!-- moss_cavern_3&#45;&gt;moss_cavern_1 -->
<g id="edge16" class="edge"><title>moss_cavern_3&#45;&gt;moss_cavern_1</title>
<path fill="none" stroke="black" d="M219.031,-475.791C214.961,-467.788 208.639,-456.912 201,-449 196.696,-444.542 191.578,-440.412 186.4,-436.758"/>
<polygon fill="black" stroke="black" points="188.042,-433.649 177.762,-431.085 184.199,-439.5 188.042,-433.649"/>
<text text-anchor="middle" x="215" y="-451.6" font-family="arial" font-size="8.00">east</text>
</g>
<!-- passage_1 -->
<g id="node12" class="node"><title>passage_1</title>
<polygon fill="none" stroke="black" points="264,-567 184,-567 184,-544 264,-544 264,-567"/>
<text text-anchor="middle" x="224" y="-551.8" font-family="arial" font-size="14.00">passage_1</text>
</g>
<!-- moss_cavern_3&#45;&gt;passage_1 -->
<g id="edge17" class="edge"><title>moss_cavern_3&#45;&gt;passage_1</title>
<path fill="none" stroke="black" d="M210.874,-499.033C205.837,-503.903 200.663,-510.131 198,-517 195.362,-523.805 197.99,-530.569 202.435,-536.439"/>
<polygon fill="black" stroke="black" points="199.923,-538.878 209.299,-543.811 205.046,-534.108 199.923,-538.878"/>
<text text-anchor="middle" x="214" y="-519.6" font-family="arial" font-size="8.00">passage</text>
</g>
<!-- passage_1&#45;&gt;moss_cavern_3 -->
<g id="edge18" class="edge"><title>passage_1&#45;&gt;moss_cavern_3</title>
<path fill="none" stroke="black" d="M227.25,-543.711C229.125,-536.24 230.942,-526.05 230,-517 229.739,-514.496 229.353,-511.889 228.9,-509.312"/>
<polygon fill="black" stroke="black" points="232.27,-508.324 226.812,-499.243 225.416,-509.745 232.27,-508.324"/>
<text text-anchor="middle" x="243" y="-519.6" font-family="arial" font-size="8.00">cavern</text>
</g>
<!-- twisty_passages_1 -->
<g id="node13" class="node"><title>twisty_passages_1</title>
<polygon fill="none" stroke="black" points="222,-635 92,-635 92,-612 222,-612 222,-635"/>
<text text-anchor="middle" x="157" y="-619.8" font-family="arial" font-size="14.00">twisty_passages_1</text>
</g>
<!-- passage_1&#45;&gt;twisty_passages_1 -->
<g id="edge19" class="edge"><title>passage_1&#45;&gt;twisty_passages_1</title>
<path fill="none" stroke="black" d="M183.708,-564.669C172.908,-568.896 162.451,-575.301 156,-585 152.754,-589.88 151.914,-595.964 152.189,-601.802"/>
<polygon fill="black" stroke="black" points="148.729,-602.328 153.611,-611.731 155.658,-601.336 148.729,-602.328"/>
<text text-anchor="middle" x="167.5" y="-587.6" font-family="arial" font-size="8.00">ladder</text>
</g>
<!-- passage_2 -->
<g id="node14" class="node"><title>passage_2</title>
<polygon fill="none" stroke="black" points="343,-635 263,-635 263,-612 343,-612 343,-635"/>
<text text-anchor="middle" x="303" y="-619.8" font-family="arial" font-size="14.00">passage_2</text>
</g>
<!-- passage_1&#45;&gt;passage_2 -->
<g id="edge20" class="edge"><title>passage_1&#45;&gt;passage_2</title>
<path fill="none" stroke="black" d="M228.869,-567.107C233.031,-575.265 239.665,-586.392 248,-594 253.57,-599.084 260.216,-603.521 266.93,-607.285"/>
<polygon fill="black" stroke="black" points="265.543,-610.508 276.032,-611.996 268.76,-604.291 265.543,-610.508"/>
<text text-anchor="middle" x="265" y="-587.6" font-family="arial" font-size="8.00">darkness</text>
</g>
<!-- twisty_passages_1&#45;&gt;passage_1 -->
<g id="edge30" class="edge"><title>twisty_passages_1&#45;&gt;passage_1</title>
<path fill="none" stroke="black" d="M167.961,-611.703C178.224,-601.593 193.751,-586.297 205.861,-574.368"/>
<polygon fill="black" stroke="black" points="208.567,-576.615 213.235,-567.104 203.655,-571.628 208.567,-576.615"/>
<text text-anchor="middle" x="205.5" y="-587.6" font-family="arial" font-size="8.00">ladder</text>
</g>
<!-- tp1_n -->
<g id="node22" class="node"><title>tp1_n</title>
<polygon fill="none" stroke="black" points="54.5,-703 9.5,-703 9.5,-680 54.5,-680 54.5,-703"/>
<text text-anchor="middle" x="32" y="-687.8" font-family="arial" font-size="14.00">tp1_n</text>
</g>
<!-- twisty_passages_1&#45;&gt;tp1_n -->
<g id="edge31" class="edge"><title>twisty_passages_1&#45;&gt;tp1_n</title>
<path fill="none" stroke="black" d="M135.242,-635.122C124.57,-640.398 111.557,-646.927 100,-653 86.5906,-660.046 71.8528,-668.131 59.5358,-674.985"/>
<polygon fill="black" stroke="black" points="57.6735,-672.017 50.6509,-679.95 61.0878,-678.127 57.6735,-672.017"/>
<text text-anchor="middle" x="109.5" y="-655.6" font-family="arial" font-size="8.00">north</text>
</g>
<!-- tp1_e -->
<g id="node23" class="node"><title>tp1_e</title>
<polygon fill="none" stroke="black" points="117.5,-703 72.5,-703 72.5,-680 117.5,-680 117.5,-703"/>
<text text-anchor="middle" x="95" y="-687.8" font-family="arial" font-size="14.00">tp1_e</text>
</g>
<!-- twisty_passages_1&#45;&gt;tp1_e -->
<g id="edge32" class="edge"><title>twisty_passages_1&#45;&gt;tp1_e</title>
<path fill="none" stroke="black" d="M147.039,-635.104C137.604,-645.147 123.246,-660.431 112,-672.403"/>
<polygon fill="black" stroke="black" points="109.438,-670.018 105.143,-679.703 114.54,-674.811 109.438,-670.018"/>
<text text-anchor="middle" x="138" y="-655.6" font-family="arial" font-size="8.00">east</text>
</g>
<!-- tp1_s -->
<g id="node24" class="node"><title>tp1_s</title>
<polygon fill="none" stroke="black" points="180.5,-703 135.5,-703 135.5,-680 180.5,-680 180.5,-703"/>
<text text-anchor="middle" x="158" y="-687.8" font-family="arial" font-size="14.00">tp1_s</text>
</g>
<!-- twisty_passages_1&#45;&gt;tp1_s -->
<g id="edge33" class="edge"><title>twisty_passages_1&#45;&gt;tp1_s</title>
<path fill="none" stroke="black" d="M157.161,-635.104C157.301,-644.382 157.51,-658.133 157.684,-669.612"/>
<polygon fill="black" stroke="black" points="154.185,-669.757 157.836,-679.703 161.184,-669.651 154.185,-669.757"/>
<text text-anchor="middle" x="167.5" y="-655.6" font-family="arial" font-size="8.00">south</text>
</g>
<!-- tp1_w -->
<g id="node25" class="node"><title>tp1_w</title>
<polygon fill="none" stroke="black" points="245.5,-703 198.5,-703 198.5,-680 245.5,-680 245.5,-703"/>
<text text-anchor="middle" x="222" y="-687.8" font-family="arial" font-size="14.00">tp1_w</text>
</g>
<!-- twisty_passages_1&#45;&gt;tp1_w -->
<g id="edge34" class="edge"><title>twisty_passages_1&#45;&gt;tp1_w</title>
<path fill="none" stroke="black" d="M167.443,-635.104C177.335,-645.147 192.387,-660.431 204.177,-672.403"/>
<polygon fill="black" stroke="black" points="201.856,-675.034 211.367,-679.703 206.843,-670.122 201.856,-675.034"/>
<text text-anchor="middle" x="202.5" y="-655.6" font-family="arial" font-size="8.00">west</text>
</g>
<!-- passage_2&#45;&gt;passage_1 -->
<g id="edge21" class="edge"><title>passage_2&#45;&gt;passage_1</title>
<path fill="none" stroke="black" d="M299.08,-611.83C295.626,-603.637 289.908,-592.493 282,-585 276.513,-579.801 269.897,-575.364 263.126,-571.648"/>
<polygon fill="black" stroke="black" points="264.398,-568.371 253.888,-567.025 261.265,-574.631 264.398,-568.371"/>
<text text-anchor="middle" x="298" y="-587.6" font-family="arial" font-size="8.00">back</text>
</g>
<!-- fumbling_1 -->
<g id="node15" class="node"><title>fumbling_1</title>
<polygon fill="none" stroke="black" points="342.5,-703 263.5,-703 263.5,-680 342.5,-680 342.5,-703"/>
<text text-anchor="middle" x="303" y="-687.8" font-family="arial" font-size="14.00">fumbling_1</text>
</g>
<!-- passage_2&#45;&gt;fumbling_1 -->
<g id="edge22" class="edge"><title>passage_2&#45;&gt;fumbling_1</title>
<path fill="none" stroke="black" d="M303,-635.104C303,-644.382 303,-658.133 303,-669.612"/>
<polygon fill="black" stroke="black" points="299.5,-669.703 303,-679.703 306.5,-669.703 299.5,-669.703"/>
<text text-anchor="middle" x="318.5" y="-655.6" font-family="arial" font-size="8.00">continue</text>
</g>
<!-- f1_f -->
<g id="node16" class="node"><title>f1_f</title>
<polygon fill="none" stroke="black" points="293,-771 259,-771 259,-748 293,-748 293,-771"/>
<text text-anchor="middle" x="276" y="-755.8" font-family="arial" font-size="14.00">f1_f</text>
</g>
<!-- fumbling_1&#45;&gt;f1_f -->
<g id="edge23" class="edge"><title>fumbling_1&#45;&gt;f1_f</title>
<path fill="none" stroke="black" d="M296.329,-703.037C293.2,-708.291 289.598,-714.829 287,-721 284.754,-726.335 282.784,-732.279 281.154,-737.833"/>
<polygon fill="black" stroke="black" points="277.699,-737.204 278.459,-747.772 284.454,-739.036 277.699,-737.204"/>
<text text-anchor="middle" x="302.5" y="-723.6" font-family="arial" font-size="8.00">forward</text>
</g>
<!-- fumbling_2 -->
<g id="node17" class="node"><title>fumbling_2</title>
<polygon fill="none" stroke="black" points="390.5,-771 311.5,-771 311.5,-748 390.5,-748 390.5,-771"/>
<text text-anchor="middle" x="351" y="-755.8" font-family="arial" font-size="14.00">fumbling_2</text>
</g>
<!-- fumbling_1&#45;&gt;fumbling_2 -->
<g id="edge24" class="edge"><title>fumbling_1&#45;&gt;fumbling_2</title>
<path fill="none" stroke="black" d="M310.712,-703.104C317.808,-712.861 328.5,-727.562 337.086,-739.369"/>
<polygon fill="black" stroke="black" points="334.435,-741.674 343.148,-747.703 340.096,-737.557 334.435,-741.674"/>
<text text-anchor="middle" x="338" y="-723.6" font-family="arial" font-size="8.00">back</text>
</g>
<!-- panic_lost_1 -->
<g id="node18" class="node"><title>panic_lost_1</title>
<polygon fill="none" stroke="black" points="336,-839 246,-839 246,-816 336,-816 336,-839"/>
<text text-anchor="middle" x="291" y="-823.8" font-family="arial" font-size="14.00">panic_lost_1</text>
</g>
<!-- fumbling_2&#45;&gt;panic_lost_1 -->
<g id="edge25" class="edge"><title>fumbling_2&#45;&gt;panic_lost_1</title>
<path fill="none" stroke="black" d="M341.36,-771.104C332.317,-781.052 318.599,-796.141 307.764,-808.06"/>
<polygon fill="black" stroke="black" points="304.952,-805.949 300.815,-815.703 310.132,-810.658 304.952,-805.949"/>
<text text-anchor="middle" x="330.5" y="-791.6" font-family="arial" font-size="8.00">run</text>
</g>
<!-- f2_i -->
<g id="node19" class="node"><title>f2_i</title>
<polygon fill="none" stroke="black" points="387.5,-839 354.5,-839 354.5,-816 387.5,-816 387.5,-839"/>
<text text-anchor="middle" x="371" y="-823.8" font-family="arial" font-size="14.00">f2_i</text>
</g>
<!-- fumbling_2&#45;&gt;f2_i -->
<g id="edge26" class="edge"><title>fumbling_2&#45;&gt;f2_i</title>
<path fill="none" stroke="black" d="M354.213,-771.104C357.054,-780.478 361.278,-794.417 364.778,-805.967"/>
<polygon fill="black" stroke="black" points="361.478,-807.148 367.728,-815.703 368.178,-805.118 361.478,-807.148"/>
<text text-anchor="middle" x="382" y="-791.6" font-family="arial" font-size="8.00">investigate</text>
</g>
<!-- panic_lost_1&#45;&gt;eaten_by_grue -->
<g id="edge27" class="edge"><title>panic_lost_1&#45;&gt;eaten_by_grue</title>
<path fill="none" stroke="black" d="M276.058,-839.104C261.279,-849.592 238.448,-865.795 221.289,-877.973"/>
<polygon fill="black" stroke="black" points="219.034,-875.28 212.905,-883.922 223.086,-880.989 219.034,-875.28"/>
<text text-anchor="middle" x="256.5" y="-859.6" font-family="arial" font-size="8.00">run</text>
</g>
<!-- pl1_w -->
<g id="node20" class="node"><title>pl1_w</title>
<polygon fill="none" stroke="black" points="314,-907 268,-907 268,-884 314,-884 314,-907"/>
<text text-anchor="middle" x="291" y="-891.8" font-family="arial" font-size="14.00">pl1_w</text>
</g>
<!-- panic_lost_1&#45;&gt;pl1_w -->
<g id="edge28" class="edge"><title>panic_lost_1&#45;&gt;pl1_w</title>
<path fill="none" stroke="black" d="M291,-839.104C291,-848.382 291,-862.133 291,-873.612"/>
<polygon fill="black" stroke="black" points="287.5,-873.703 291,-883.703 294.5,-873.703 287.5,-873.703"/>
<text text-anchor="middle" x="299" y="-859.6" font-family="arial" font-size="8.00">wait</text>
</g>
<!-- pl1_h -->
<g id="node21" class="node"><title>pl1_h</title>
<polygon fill="none" stroke="black" points="376,-907 332,-907 332,-884 376,-884 376,-907"/>
<text text-anchor="middle" x="354" y="-891.8" font-family="arial" font-size="14.00">pl1_h</text>
</g>
<!-- panic_lost_1&#45;&gt;pl1_h -->
<g id="edge29" class="edge"><title>panic_lost_1&#45;&gt;pl1_h</title>
<path fill="none" stroke="black" d="M301.122,-839.104C310.709,-849.147 325.298,-864.431 336.725,-876.403"/>
<polygon fill="black" stroke="black" points="334.257,-878.886 343.694,-883.703 339.321,-874.053 334.257,-878.886"/>
<text text-anchor="middle" x="334" y="-859.6" font-family="arial" font-size="8.00">hide</text>
</g>
</g>
</svg>
